<svg width="168" height="224" viewBox="0 0 168 224" fill="none" xmlns="http://www.w3.org/2000/svg">
<rect width="168" height="224" rx="16" fill="white" fill-opacity="0.5"/>
<path d="M45.0873 125.562C47.491 127.874 52.1047 128.413 55.6716 125.177C56.951 124.059 59.4711 121.401 63.4257 117.433C82.8109 97.9376 94.7521 85.6473 96.8845 87.5737C98.5904 89.1148 91.9994 98.4 85.4085 107.493C73.3509 124.098 63.193 136.234 70.8308 143.824C76.8014 149.757 85.8737 144.363 100.413 131.688C108.205 124.868 113.633 119.821 114.99 121.131C115.843 121.979 113.788 125.331 111.152 129.839C107.43 136.234 102.467 143.477 107.314 148.293C110.687 151.645 117.123 150.181 124.605 142.822C126.156 141.32 126.505 139.509 125.187 138.238C123.985 137.043 122.279 137.236 121 138.392C116.153 143.015 112.548 145.018 111.966 144.363C111.23 143.67 113.284 140.01 116.851 133.691C121.775 124.946 124.799 119.089 120.263 114.697C114.176 108.841 107.042 115.044 94.6746 125.87C84.1678 135.04 79.8643 137.429 78.895 136.388C77.4993 134.924 81.3763 129.723 92.8524 113.773C105.259 96.5892 112.625 85.4162 105.647 78.6353C96.5356 69.8125 84.2841 76.3236 53.9269 106.183C49.5071 110.498 46.7544 113.118 45.3974 114.736C41.8693 118.781 42.6448 123.25 45.0873 125.562Z" fill="white" fill-opacity="0.5"/>
</svg>
