<svg width="430" height="932" viewBox="0 0 430 932" fill="none" xmlns="http://www.w3.org/2000/svg">
<g clip-path="url(#clip0_1_4)">
<rect width="430" height="932" fill="white" fill-opacity="0.5"/>
<path d="M115.402 500.192C121.554 506.106 133.363 507.485 142.493 499.207C145.767 496.347 152.218 489.548 162.34 479.398C211.956 429.528 242.52 398.089 247.978 403.017C252.344 406.959 235.475 430.711 218.605 453.971C187.743 496.447 161.744 527.491 181.293 546.907C196.575 562.084 219.796 548.286 257.009 515.863C276.953 498.417 290.846 485.506 294.32 488.857C296.503 491.027 291.243 499.601 284.496 511.133C274.97 527.491 262.267 546.019 274.673 558.339C283.306 566.913 299.779 563.168 318.929 544.344C322.899 540.502 323.793 535.869 320.419 532.618C317.343 529.561 312.976 530.055 309.702 533.012C297.296 544.837 288.069 549.961 286.58 548.286C284.696 546.513 289.953 537.151 299.083 520.986C311.686 498.616 319.426 483.634 307.816 472.399C292.236 457.419 273.977 473.287 242.322 500.98C215.429 524.437 204.415 530.548 201.934 527.885C198.361 524.14 208.285 510.836 237.658 470.035C269.413 426.079 288.266 397.498 270.406 380.152C247.085 357.583 215.727 374.238 138.027 450.62C126.715 461.658 119.669 468.36 116.196 472.499C107.165 482.846 109.15 494.278 115.402 500.192Z" fill="white" fill-opacity="0.5"/>
</g>
<defs>
<clipPath id="clip0_1_4">
<rect width="430" height="932" fill="white"/>
</clipPath>
</defs>
</svg>
